<svg width="48" height="48" xmlns="http://www.w3.org/2000/svg" xmlns:xlink="http://www.w3.org/1999/xlink" xml:space="preserve" overflow="hidden"><g transform="translate(-1148 -182)"><path d="M1172 190C1175.87 190 1179 193.134 1179 197 1179 200.866 1175.87 204 1172 204 1168.13 204 1165 200.866 1165 197 1165 193.136 1168.14 190.004 1172 190M1172 189C1167.58 189 1164 192.582 1164 197 1164 201.418 1167.58 205 1172 205 1176.42 205 1180 201.418 1180 197 1180 192.582 1176.42 189 1172 189Z" stroke="#000000" stroke-width="2.46163"/><path d="M1188 223 1187 223 1187 215.25C1186.98 214.188 1186.48 213.193 1185.64 212.54 1183.44 210.858 1180.93 209.637 1178.26 208.95 1176.23 208.326 1174.12 208.006 1172 208 1169.88 208.037 1167.77 208.356 1165.74 208.95 1163.09 209.726 1160.59 210.943 1158.34 212.55 1157.51 213.203 1157.02 214.194 1157 215.25L1157 223 1156 223 1156 215.25C1156.02 213.884 1156.66 212.602 1157.74 211.76 1160.08 210.076 1162.7 208.801 1165.47 207.988 1167.59 207.37 1169.79 207.037 1172 207 1174.22 207.005 1176.42 207.339 1178.54 207.99 1181.34 208.712 1183.97 209.996 1186.27 211.762 1187.34 212.605 1187.98 213.886 1188 215.25Z" stroke="#000000" stroke-width="2.46163"/></g></svg>